<svg width="75" height="75" viewBox="0 0 75 75" fill="none" xmlns="http://www.w3.org/2000/svg">
<circle cx="37.5" cy="37.5" r="37.5" fill="#5F64EB" fill-opacity="0.8"/>
<path d="M37.5 38.125C44.4873 38.125 50.1562 31.8262 50.1562 24.0625C50.1562 16.2988 44.4873 10 37.5 10C30.5127 10 24.8438 16.2988 24.8438 24.0625C24.8438 31.8262 30.5127 38.125 37.5 38.125ZM48.75 41.25H43.9072C41.9561 42.2461 39.7852 42.8125 37.5 42.8125C35.2148 42.8125 33.0527 42.2461 31.0928 41.25H26.25C20.0361 41.25 15 46.8457 15 53.75V55.3125C15 57.9004 16.8896 60 19.2188 60H55.7812C58.1104 60 60 57.9004 60 55.3125V53.75C60 46.8457 54.9639 41.25 48.75 41.25Z" fill="white"/>
</svg>
